<svg xmlns="http://www.w3.org/2000/svg" viewBox="0 0 1200 470" role="img" aria-labelledby="title desc"><title id="title">Assoreamento de um rio</title><desc id="desc">Chuva leva sedimentos de uma margem sem vegetação para o leito do rio.</desc><defs><linearGradient id="land" x1="0" y1="0" x2="0" y2="1"><stop stop-color="#c6d8c0"/><stop offset="1" stop-color="#829c76"/></linearGradient><linearGradient id="water" x1="0" x2="1"><stop stop-color="#65a9a5"/><stop offset="1" stop-color="#244f61"/></linearGradient></defs><rect width="1200" height="470" fill="#dce9e7"/><path d="M0 0h360q40 140 132 212t-32 258H0z" fill="url(#land)"/><path d="M1200 0H790q-25 105-104 188t26 282h488z" fill="#c9a86c"/><path d="M0 345q130-80 278-30c117 40 175 19 255-46 74-60 133-52 222 5 97 63 180 72 445 7v189H0z" fill="url(#water)"/><path d="M346 0q-20 98 86 192t-42 149" fill="none" stroke="#8c6a47" stroke-width="28" opacity=".8"/><path d="M810 0q10 125-86 211t71 151" fill="none" stroke="#d9bd78" stroke-width="24" opacity=".9"/><g fill="#96734d"><circle cx="613" cy="345" r="8"/><circle cx="662" cy="366" r="5"/><circle cx="704" cy="336" r="7"/><circle cx="751" cy="377" r="4"/><circle cx="800" cy="350" r="6"/></g><path d="M180 100l50 62M250 92l50 56M930 96l-38 61M1012 116l-37 52" stroke="#6f8f78" stroke-width="8" stroke-linecap="round"/><text x="80" y="60" fill="#12263a" font-family="monospace" font-size="15" letter-spacing="2">SEM VEGETAÇÃO · SEDIMENTOS ↓ · LEITO MAIS RASO</text><text x="895" y="426" fill="#f7d27b" font-family="Arial" font-size="22" font-weight="700">ASSOREAMENTO</text></svg>
