<svg xmlns="http://www.w3.org/2000/svg" viewBox="0 0 1200 470" role="img" aria-labelledby="title desc"><title id="title">Intemperismo e erosão</title><desc id="desc">Sequência de alteração de uma rocha e transporte dos fragmentos pela chuva.</desc><defs><linearGradient id="bg" x1="0" y1="0" x2="1" y2="1"><stop stop-color="#e8f0e8"/><stop offset="1" stop-color="#dce9e7"/></linearGradient></defs><rect width="1200" height="470" fill="url(#bg)"/><rect x="70" y="76" width="450" height="315" rx="22" fill="#fffdf8" stroke="#cbd8c9" stroke-width="3"/><rect x="680" y="76" width="450" height="315" rx="22" fill="#fffdf8" stroke="#cbd8c9" stroke-width="3"/><path d="M180 315l115-155 130 0 90 155z" fill="#8b6e57"/><path d="M332 169l-32 92M356 173l46 96M330 264l-13 50" stroke="#f7d27b" stroke-width="7"/><g stroke="#5b8e9a" stroke-width="7" stroke-linecap="round"><path d="M190 108l-18 44"/><path d="M255 108l-17 44"/><path d="M320 108l-17 44"/><path d="M385 108l-18 44"/></g><path d="M760 123q100 130 260 192" fill="none" stroke="#65a9a5" stroke-width="18" opacity=".7"/><g fill="#8b6e57"><circle cx="848" cy="250" r="15"/><circle cx="928" cy="288" r="10"/><circle cx="1020" cy="330" r="14"/><circle cx="890" cy="328" r="7"/></g><path d="M760 123q100 130 260 192" fill="none" stroke="#f7d27b" stroke-width="3" stroke-dasharray="12 13"/><g fill="#12263a" font-family="Arial" font-size="22" font-weight="700"><text x="180" y="365">1 · ALTERAÇÃO</text><text x="793" y="365">2 · TRANSPORTE</text></g><g fill="#c94f45" font-family="monospace" font-size="14"><text x="122" y="51">INTEMPERISMO</text><text x="830" y="51">EROSÃO</text></g></svg>
